<svg id="Layer_1" data-name="Layer 1" xmlns="http://www.w3.org/2000/svg" width="399.7222" height="332.2998" viewBox="0 0 399.7222 332.2998"><defs><style>.cls-1{fill:#cc440a;}.cls-2{fill:#800c01;}.cls-3{fill:#fcfcfc;}.cls-4{fill:#fff;}.cls-5{fill:none;stroke:#000;stroke-miterlimit:10;}</style></defs><path class="cls-1" d="M234.8005,346.4365l-.6634,4.0913-1.1058,5.3075-1.548,5.197-2.3221,6.1922-1.99,5.5287-2.5432,6.0816-2.7644,6.5239-3.2067,7.9614-1.7692,4.3124-2.8749,7.9613s-7.9614,31.4032-7.63,37.153a31.5563,31.5563,0,0,0,5.4181,22.3361c7.63,10.7257,22.0043,23.11,22.0043,23.11s24.8793,15.0382,36.1579,13.8218c0,0,13.5071.7927,13.6311,1.1647s13.8888,1.3641,19.9652,7.6885l21.3292,7.9364s12.6487,3.8442,15.6249,2.8522c0,0,25.7934,2.1081,28.6456-4.96,0,0,5.2083-2.2321,7.8124-20.7092l3.2242-22.8173.7441-16.4929L383.048,441.3l1.9841-16.1209,2.2321-15.9969,2.7282-16.3689,3.3482-19.3451" transform="translate(-86.1274 -214.4274)"/><path class="cls-1" d="M434.1665,405.4522l1.1553,6.8213,5.464,8.8128,7.5789,8.6365L463.5226,446.82c12.69,10.0466,10.3991,28.5533,10.3991,28.5533,4.23,5.4639-12.69,41.5962-12.69,41.5962a18.2632,18.2632,0,0,1-15.6867,11.6329c-4.7588,1.0575-18.3305-9.5178-18.3305-9.5178-4.23-1.9388-15.6867-16.0392-15.6867-16.0392-3.1726-2.4676-7.9315-12.69-7.9315-12.69l-8.2839-14.9817-6.874-11.4565-6.3452-9.5178-.5361-2.2212-4.2879-9.944,9.9954-33.0512" transform="translate(-86.1274 -214.4274)"/><path class="cls-1" d="M436.852,434.1936s-3.8308-15.2712-3.0161-16.697c0,0,.4583-24.8483,1.4512-26.885,0,0-1.2475-35.6431-2.8769-35.8468,0,0-5.4992-24.6446-12.8315-29.94l-6.7213-8.5544L408.58,303.0315s-9.98-35.0321-36.6615-29.94c0,0-12.4241,8.3506-20.9785-3.87,0,0-16.905-13.0352-26.6813-11.4058,0,0-17.5762-.611-18.259-7.1286,0,0-22.0686-4.8882-30.0119-.8147,0,0-33.4027,10.1837-36.05,12.4241s-18.9417,5.4992-27.0887,14.4609c0,0-16.905,11.4058-22.2,20.5712l-13.85,13.4425-16.09,13.2389L148.08,333.1753l-17.1087,10.9984-14.0536,10.1838s-23.83,22.2-20.9785,25.2556c0,0-4.2771,9.3691,7.9433,21.1822,0,0,3.6662,5.4992,4.4809,10.3874,0,0,16.4976,23.2189,31.1622,15.8866,0,0,12.6279-2.444,30.7549-22.4042l23.83-23.4226s18.7381-21.7931,23.0153-20.5711c0,0,12.22-7.3323,15.2756-6.9249" transform="translate(-86.1274 -214.4274)"/><path class="cls-2" d="M317.0247,214.566s6.1446,3.8851,7.4508,4.0651c0,0,13.7416,5.4287,16.4082,4.9428,0,0,8.9211.1186,11.5312-1.09,0,0,12.0322-.8316,17.7187,4.1164,0,0,13.638,7.1628,14.0588,20.1784l-.8643,9.0171-1.6611,5.6322-2.5113,5.9577s-7.1985,18.9182-23.19,7.3423l-8.69-5.6585-6.6235-4.0155-6.2258-3.4633-7.66-2.55-8.9813-1.1054s-17.8395-1.7155-14.7164-17.4685c0,0,.1449-15.586,5.3552-20.3165C308.4246,220.15,313.5427,213.3843,317.0247,214.566Z" transform="translate(-86.1274 -214.4274)"/><path class="cls-2" d="M96.2144,389.0277l-8.4667,10.285s-5.3785,2.3735,4.2334,18.1967l7.8317,10.4828s11.67,8.3072,23.1414-3.1646" transform="translate(-86.1274 -214.4274)"/><path class="cls-2" d="M456.6521,523.7326s11.4339,7.7146,15.39,5.9345c0,0,9.0983-8.5049,9.0983-13.45,0,0,7.3182-17.6032,3.56-21.9546,0,0-3.58-8.1559-10.79-10.9017" transform="translate(-86.1274 -214.4274)"/><path class="cls-2" d="M363.7927,520.9508s-.2423,31.2383-18.1771,24.9369l-28.841-4.6049-15.7536-3.1507L284.54,533.839l-29.3257-11.46-21.0855-9.21-16.723-9.21-4.6049-4.12s-1.6965-4.8472,1.4542-10.9062c0,0,2.1657-18.7429-.1444-21.7963l8.2436,9.2153,8.8215,8.4986,6.7714,4.7166,13.0561,6.5193,10.7858,3.93,11.6349,1.2148s13.7613,1.4243,15.982,2.0993,13.4879,3.5892,14.1531,6.5375l23.4785,8.5567,10.0549,2.24,9.3565-.1467h11.1977l6.1456-1.1555v2.311" transform="translate(-86.1274 -214.4274)"/><path class="cls-3" d="M242.0586,341.36c1.7954.041,1.2226,4.123,3.626,4.7558l.249-.0683c2.3218-.6377,2.1079-4.0127,1.6406-5.7129a17.67,17.67,0,0,0-3.0107-6.5752c-3.1787-3.9424-8.3916-6.5225-9.8047-11.6641-.6377-2.3223-.2876-6.5664,2.5732-7.3525,1.8242-.501,5.25.1191,5.8423,2.2744.2168.7881.0933,1.3125-.7358,1.54-1.6172.4444-1.8032-2.18-4.084-1.5527-2.1143.581-1.4717,3.57-1.0723,5.0225,1.15,4.1875,5.4834,6.1621,8.3062,9.1328,2.5771,2.7256,4.7241,7.1289,4.5947,10.5547-.0713,2.3378-1.1284,5.7939-3.6577,6.4892-3.0679.8428-5.0693-2.709-5.7529-5.1963A1.4636,1.4636,0,0,1,242.0586,341.36Z" transform="translate(-86.1274 -214.4274)"/><path class="cls-3" d="M264.9912,333.2344a204.9472,204.9472,0,0,0-3.2969-20.4766l.001-.3867c.002-.6455.0469-1.333.95-1.3311.5591.002,1.5908.0909,1.5889.9082.21,1.5049,1.3511,8.8184,1.605,10.3663.8037,4.7763,1.22,9.55,1.938,14.2812.5639-1.8467,2.3491-9.7109,2.6113-11.2158.1748-1.03,2.6728-2.4424,3.0122-.8076l1.7832,8.1318c.4253,1.7207.5918,3.6563.9751,5.0332.7417-3.9541,3.1475-18.4375,3.6719-21.5752.2622-1.4609.0556-4.5156,2.12-4.51a.9841.9841,0,0,1,.9858,1.1211,2.8717,2.8717,0,0,1-.0444.6455c-1.8779,10.2286-3.8838,20.3272-5.0742,30.7735-.2163.5576-.648,1.1162-1.25,1.1142a1.318,1.318,0,0,1-.9873-.5195l-3.6524-16.3916-3.05,14.3525c-.2187,1.2041.0357,2.58-1.5551,2.5762-.6451-.0019-.9029-.1748-1.2447-.8642Z" transform="translate(-86.1274 -214.4274)"/><path class="cls-3" d="M297.77,343.0225l1.7793-8.3262c1.2847-6.0127,1.5225-10.0068,2.8072-16.0195l.4585-2.1446c6.8447.8907,7.5029,1.5147,7.3046,2.44-.0625.2939-.4072.88-.7285.9433l-4.584-.98c-.2939-.0625-.3388.1485-.3662.2745-.9521,4.457-1.2324,7.8261-1.9594,12.4638a47.9587,47.9587,0,0,0,4.8686,1.084c1.4209.3477,1.8672,2.9932-.0674,2.58l-5.34-1.1406-2.0181,9.8574c.9551.4678,6.52.5566,6.125,2.4072a1.04,1.04,0,0,1-1.0327.9238l-.21-.0449c-1.5826-.207-7.6524-1.0205-7.4336-2.248Z" transform="translate(-86.1274 -214.4274)"/><path class="cls-3" d="M370.2529,369.1875l6.1436-5.8955c4.4355-4.2578,6.874-7.4307,11.31-11.6885l1.5821-1.5185c5.167,4.5771,5.3613,5.4629,4.6777,6.1181a1.4318,1.4318,0,0,1-1.1309.3711l-3.2461-3.3818c-.208-.2168-.3642-.0674-.457.0224-3.2881,3.1553-5.41,5.7881-8.6133,9.22a48.094,48.094,0,0,0,3.4219,3.6279c.9824,1.085-.1328,3.5254-1.5019,2.0986l-3.7813-3.94-7.2,7.0293c.5283.9229,5.085,4.1182,3.72,5.4287a1.0381,1.0381,0,0,1-1.372.1846l-.1485-.1553c-1.1943-1.0576-5.7636-5.1367-4.8935-6.03Z" transform="translate(-86.1274 -214.4274)"/><path class="cls-3" d="M338.4492,324.0361c1.66-3.6006,3.6983-1.7109,3.332,1.28-.539,4.3994-1.18,8.3447-4.9765,31.3-.3389.8828-1.8047,1.1035-2.0332-.459l1.33-7.78-5.7266-1.2784c-1.0469,1.7627-2.7,5.2276-3.4277,6.8828-.45.9317-2.084.0284-1.7657-.6787Zm-6.4209,18.9991c-.1484.2646-.79,1.8154-.9131,2.1367l5.294,1.2041,2.9267-19.3731C338.2354,329.39,333.1035,340.5928,332.0283,343.0352Z" transform="translate(-86.1274 -214.4274)"/><path class="cls-3" d="M359.1113,347.8179c1.1866-3.0908,4.1377-10.8936,4.1133-10.9492l-3.165-1.3536c-1.1455-.8545-1.1494-2.2841,1.0019-2.0107,3.1006,1.2832,6.1817,2.375,9.3408,3.8643,1.7442.8554.8536,2.8154-.3105,2.3681l-4.3447-1.7607c-.0557.0244-5.1035,12.6875-7.1729,17.834-.6328,1.6455-1.98,4.6757-2.7207,6.6015l-.2.5225c-.7832,1.081-2.29.0869-2.14-1.1445C354.6484,358.9556,358.001,350.7085,359.1113,347.8179Z" transform="translate(-86.1274 -214.4274)"/><path class="cls-3" d="M396.4453,376.8706c1.1123-.7339,7.5274-5.2212,9.168-6.4058.3584-.2368,3.375-2.5356,3.7461-2.8315l.1435-.0947c.8262-.5445,1.6563.2466,2.13.9648,3.2666,4.9536.8731,9.0562-3.2549,11.7778a9.3391,9.3391,0,0,1-9.3066,1.0391c.8916,5.3355-4.2969,10.1992-8.3174,12.8511-.6455.4258-1.1572.1963-1.583-.45-.2842-.4307-.4023-.61.0518-1.1685,2.5742-1.9546,9.7353-7.6557,6.9892-11.82-.0244-.0356-.2256-.2632-.2734-.335-4.3164,2.28-8.1953,5.3018-12.4541,7.75a1.3869,1.3869,0,0,1-1.2549-1.9023C384.4072,384.8613,394.3145,378.3271,396.4453,376.8706Zm2.1631,1.4063c2.1846,2.2172,5.9062,1.771,8.168.2793,1.9023-1.2549,5.33-4.648,3.625-7.2325-.0948-.1435-.8282-1.2563-1.1143-1.0669Z" transform="translate(-86.1274 -214.4274)"/><path class="cls-4" d="M238.2773,380.2534a171.6694,171.6694,0,0,0,1.73-17.2754l.084-.3134c.14-.5215.3242-1.0684,1.0537-.8721.4522.1211,1.2686.414,1.0909,1.0752-.1524,1.2636-.8,7.4248-.9278,8.7324-.375,4.0371-1.0635,7.9893-1.499,11.9717.8535-1.3731,3.9863-7.3535,4.522-8.5137.3628-.7969,2.687-1.4033,2.61-.0078l-.3032,6.9629c-.0264,1.4834-.3066,3.0859-.292,4.2812,1.4492-3.039,6.5059-14.2422,7.6045-16.667.5254-1.1259,1.0146-3.6416,2.6826-3.1933a.8235.8235,0,0,1,.5576,1.1181,2.41,2.41,0,0,1-.1748.5127c-3.7158,7.8731-7.5078,15.6133-10.7138,23.8086a1.2673,1.2673,0,0,1-1.251.6338,1.1058,1.1058,0,0,1-.688-.6318l.5654-14.0479-5.55,10.958c-.435.9268-.5249,2.0957-1.812,1.75-.5215-.14-.6924-.3349-.8213-.9658Z" transform="translate(-86.1274 -214.4274)"/><path class="cls-4" d="M259.35,391.314l1.8477-6.8828c1.3349-4.9727,1.706-8.3008,3.041-13.2725l.4756-1.7734c5.6836,1.0419,6.207,1.5918,6.0019,2.3574-.0654.2431-.38.7168-.6509.7568l-3.789-1.0176c-.2437-.0644-.29.1084-.3184.2129-.9887,3.6856-1.37,6.49-2.1782,10.336a40.5164,40.5164,0,0,0,4.0244,1.1171c1.1719.3516,1.4307,2.5821-.1684,2.1534l-4.4156-1.1846-2.1137,8.1523c.7778.4336,5.4262.75,5.0161,2.2793a.8708.8708,0,0,1-.9033.7266l-.1739-.0469c-1.3139-.2412-6.3535-1.1836-6.1177-2.2011Z" transform="translate(-86.1274 -214.4274)"/><path class="cls-4" d="M281.1719,374.5854c1.0674-3.1416,2.93-1.748,2.8857.7745-.0644,3.71-.2529,7.0517-1.4092,26.4936-.205.7637-1.4072,1.0752-1.7343-.2051l.4287-6.5932-4.88-.5645c-.7168,1.5591-1.791,4.5884-2.2525,6.03-.2934.8154-1.7324.2051-1.5292-.4111Zm-3.688,16.378c-.1.2344-.4985,1.581-.5733,1.8584l4.5132.541.7461-16.3848C281.4609,379.062,278.1665,388.8364,277.4839,390.9634Z" transform="translate(-86.1274 -214.4274)"/><path class="cls-4" d="M294.8379,388.8013c.7183-2.6768,2.4932-9.4307,2.4687-9.4746l-2.7539-.8506c-1.0283-.6114-1.1562-1.8018.6592-1.7617,2.6934.7978,5.3535,1.4375,8.1138,2.4023,1.5268.5586.9565,2.2686-.0518,1.998l-3.771-1.0869c-.0439.0254-3.1411,11.0088-4.414,15.4746-.3828,1.4253-1.24,4.065-1.6885,5.733l-.1211.4521c-.5586.9678-1.8994.2725-1.8818-.7656C292.0947,398.4629,294.1655,391.3042,294.8379,388.8013Z" transform="translate(-86.1274 -214.4274)"/><path class="cls-4" d="M313.9805,399.8281a14.2047,14.2047,0,0,0-4.959-1.5176l-2.417,9.004c-.084.3125-.791.31-.9995.2529a.9359.9359,0,0,1-.752-.9473l6.2173-24.8286c.1963-.7305.459-1.2939,1.2588-1.0791.1738.0469,1.2051.5107,1.1211.8232l-3.95,14.8531c1.24.52,4.0391,1.1963,5.1143,1.6338l.3925-1.46c1.2784-4.7622,2.1016-8.939,3.212-13.0767.1113-.416.3681-1.0937.89-.9531s1.2207.5879,1.1133,1.2676l-6.249,25.0815a1.1715,1.1715,0,0,1-1.4707.7608l-.1739-.0469c-.2343-.1-.4394-.8633-.4531-1.0908A73.95,73.95,0,0,0,313.9805,399.8281Z" transform="translate(-86.1274 -214.4274)"/><path class="cls-4" d="M322.6641,408.3076l1.8476-6.8828c1.334-4.9717,1.7061-8.3,3.04-13.272l.4755-1.7724c5.6846,1.041,6.2071,1.5918,6.002,2.3564-.0654.2432-.3789.7178-.65.7569l-3.7891-1.0166c-.2441-.0655-.29.1083-.3183.2119-.9893,3.6855-1.3692,6.49-2.1777,10.3354a40.0538,40.0538,0,0,0,4.0234,1.1172c1.1728.3516,1.4316,2.583-.168,2.1543l-4.416-1.1855-2.1133,8.1533c.7783.4326,5.4258.749,5.0156,2.2783a.869.869,0,0,1-.9023.7266l-.1738-.0469c-1.3145-.24-6.3535-1.1836-6.1182-2.2012Z" transform="translate(-86.1274 -214.4274)"/><path class="cls-4" d="M340.5156,402.0674c.2891-1.0772,1.8125-7.4507,2.1817-9.103.0937-.3477.707-3.4629.7744-3.8545l.0371-.14c.2148-.7988,1.1748-.7656,1.87-.5791,4.7969,1.2881,5.5772,5.1865,4.5039,9.1841a7.8179,7.8179,0,0,1-5.2519,5.82c3.5214,2.8467,2.9746,8.7744,1.93,12.668-.1679.6269-.6162.7666-1.2421.5986-.417-.1113-.5909-.1582-.6153-.7617.5264-2.6533,1.8438-10.2012-2.1885-11.2832-.0351-.01-.288-.04-.3564-.0586-1.4375,3.8252-2.1885,7.873-3.4961,11.77a1.16,1.16,0,0,1-1.8418-.4941C337.4141,413.7588,339.99,404.1631,340.5156,402.0674Zm2.1358-.32c2.5986.1758,4.6826-2.1719,5.27-4.3623.4941-1.8423.7558-5.8716-1.7471-6.5435-.1387-.0371-1.2168-.3262-1.291-.0488Z" transform="translate(-86.1274 -214.4274)"/><path class="cls-4" d="M354.083,419.4248a1.1414,1.1414,0,0,1,.97,0c1.252.3359,1.294.8691.9766,2.0508-.0273.1035-.2393.7549-.2773.8945-.1622.3291-.7247.0664-.8643.0293-1.251-.3359-1.29-1.167-.9629-2.3838Zm1.8389-6.8486c.6806-2.5381,1.2256-5.2617,2.9726-7.3272,1.5528-1.8935,3.8819-3.3554,4.545-5.8232.2793-1.044.1191-1.8311-1.0977-2.1582-2.33-.625-3.7148,2.7295-5.2793,2.3095-.5215-.14-.6338-.6914-.5039-1.1787.6543-2.4321,4.0527-3.5708,6.1035-3.02,2.1211.5694,3.6875,2.3687,3.0713,4.6636-1.1006,4.1016-5.7568,5.7588-6.8584,9.8613l-1.8477,6.8828c-.1211.4522-.6523.3477-.93.2725-.418-.1123-1.0245-.35-1.1563-.832Z" transform="translate(-86.1274 -214.4274)"/><path class="cls-4" d="M370.5283,423.8389a1.1407,1.1407,0,0,1,.97,0c1.252.3359,1.294.8691.9766,2.0507-.0273.1036-.2392.7549-.2773.8946-.1621.3291-.7256.0664-.8643.0293-1.2519-.336-1.29-1.167-.9629-2.3838Zm1.8389-6.8487c.6807-2.5371,1.2246-5.2607,2.9726-7.3271,1.5518-1.8936,3.8819-3.3545,4.545-5.8233.2793-1.0429.1191-1.831-1.0977-2.1582-2.33-.625-3.7148,2.7295-5.2793,2.31-.5215-.14-.6338-.6914-.5039-1.1787.6543-2.4326,4.0527-3.57,6.1035-3.0205,2.1211.5693,3.6875,2.3691,3.0713,4.6641-1.1006,4.1015-5.7568,5.7587-6.8584,9.8613L373.4727,421.2c-.1211.4521-.6524.3477-.93.2725-.418-.1123-1.0244-.35-1.1563-.8321Z" transform="translate(-86.1274 -214.4274)"/><rect x="212.555" y="493.8696" width="26.3988" height="1" transform="translate(-382.4783 430.8474) rotate(-81.5771)"/><rect x="202.9167" y="487.394" width="29.1373" height="1" transform="translate(-383.1304 417.1405) rotate(-81.5771)"/><rect x="264.7413" y="515.6401" width="28.928" height="1" transform="translate(-358.3925 502.3034) rotate(-81.5771)"/><rect x="274.2399" y="518.5078" width="30.3328" height="1" transform="translate(-352.5225 514.8419) rotate(-81.5771)"/><rect x="283.9397" y="521.4507" width="29.2617" height="1" transform="translate(-347.6117 526.4192) rotate(-81.5771)"/><rect x="295.3997" y="525.2383" width="27.0385" height="0.9991" transform="translate(-342.5581 539.8074) rotate(-81.5689)"/><rect x="305.4494" y="528.1756" width="25.4049" height="1.0004" transform="translate(-336.5962 553.8087) rotate(-81.8066)"/><rect x="316.8704" y="530.7109" width="24.1459" height="0.9991" transform="translate(-330.8832 564.2856) rotate(-81.5689)"/><rect x="337.5332" y="532.9492" width="25.7216" height="0.9991" transform="translate(-314.7917 587.4146) rotate(-81.5689)"/><rect x="327.2442" y="532.2485" width="24.6347" height="0.9991" transform="translate(-323.3428 576.1012) rotate(-81.5689)"/><rect x="346.6645" y="531.5009" width="23.214" height="0.9991" transform="translate(-306.6366 593.971) rotate(-81.5689)"/><rect x="222.2106" y="500.2832" width="23.9318" height="1" transform="translate(-381.6343 444.6528) rotate(-81.5771)"/><rect x="233.1131" y="504.9678" width="23.9002" height="1" transform="translate(-376.9762 459.4205) rotate(-81.5771)"/><rect x="244.1274" y="509.7158" width="23.7501" height="1" transform="translate(-372.3362 474.2942) rotate(-81.5771)"/><rect x="255.1259" y="513.3483" width="25.9377" height="0.9998" transform="translate(-365.2403 490.4142) rotate(-81.6879)"/><line class="cls-5" x1="11.8648" y1="179.0007" x2="11.8656" y2="179.0003"/><line class="cls-5" x1="11.8648" y1="179.0007" x2="0.3567" y2="190.7136"/><line class="cls-5" x1="16.2683" y1="184.8572" x2="2.5155" y2="196.9216"/><line class="cls-5" x1="20.7" y1="191.8637" x2="6.4308" y2="203.7353"/><line class="cls-5" x1="23.3198" y1="198.1809" x2="10.4916" y2="209.2898"/><line class="cls-5" x1="27.6298" y1="203.7353" x2="14.7118" y2="214.186"/><line class="cls-5" x1="32.522" y1="207.6128" x2="21.1708" y2="216.3118"/><rect x="466.1674" y="515.9675" width="1.0001" height="16.278" transform="translate(-297.6128 490.1638) rotate(-63.2213)"/><rect x="469.9602" y="509.0298" width="1.0006" height="17.4434" transform="translate(-283.222 512.5364) rotate(-65.1408)"/><rect x="472.5235" y="502.8418" width="0.9988" height="17.0185" transform="translate(-276.023 510.8618) rotate(-65.1158)"/><rect x="475.1497" y="496.8848" width="0.9995" height="17.5019" transform="translate(-265.3095 521.6545) rotate(-66.1381)"/><rect x="478.2994" y="485.942" width="0.9999" height="15.0339" transform="translate(-254.6789 510.737) rotate(-65.5576)"/><polygon points="395.465 275.627 387.14 271.055 387.621 270.178 395.946 274.75 395.465 275.627"/><rect x="295.5505" y="235.502" width="39.1441" height="1.0004" transform="translate(-83.6652 260.8293) rotate(-74.2543)"/><rect x="302.5002" y="237.9629" width="38.3238" height="0.9991" transform="translate(-72.2494 280.1594) rotate(-76.3169)"/><rect x="310.4794" y="239.501" width="36.8429" height="1.0005" transform="translate(-67.5974 289.1003) rotate(-76.4521)"/><rect x="317.5203" y="241.2863" width="36.7885" height="1.0007" transform="translate(-54.3132 308.1123) rotate(-78.4598)"/><rect x="322.3139" y="242.4765" width="39.2179" height="1.0007" transform="translate(-50.673 314.9512) rotate(-78.4598)"/><rect x="327.0288" y="243.1686" width="42.6719" height="1.0007" transform="translate(-46.198 321.8166) rotate(-78.4598)"/><rect x="331.244" y="244.9702" width="46.0531" height="0.9995" transform="translate(-49.7869 322.0469) rotate(-77.1858)"/><rect x="336.8156" y="248.9444" width="49.9441" height="1.0003" transform="translate(-51.3168 328.6136) rotate(-76.5064)"/><rect x="345.1075" y="252.5742" width="47.3972" height="1.0001" transform="translate(-44.0186 344.1519) rotate(-77.5379)"/><rect x="356.203" y="253.5618" width="38.7571" height="1.0005" transform="translate(-31.1295 360.3137) rotate(-79.0849)"/><rect x="291.7113" y="232.4678" width="36.1917" height="0.9994" transform="translate(-81.5332 257.4949) rotate(-75.0001)"/><rect x="477.185" y="490.8626" width="1.0002" height="16.6644" transform="translate(-255.2125 527.804) rotate(-66.8561)"/></svg>