<svg id="Layer_1" data-name="Layer 1" xmlns="http://www.w3.org/2000/svg" width="276.6867" height="215.7919" viewBox="0 0 276.6867 215.7919"><defs><style>.cls-1{fill:#551113;}.cls-2{fill:#944621;}.cls-3{fill:none;stroke:#000;stroke-miterlimit:9.9987;}</style></defs><g id="Group_2" data-name="Group 2"><path id="Path_1" data-name="Path 1" class="cls-1" d="M258.1431,386.9825l.1353,2.7845.0149,3.6462-.29,3.6395-.6613,4.3983-.536,3.9157-.8224,4.3569-.9062,4.6793-.9957,5.6859-.5616,3.0839-.7764,5.64s-.8442,21.7743.1787,25.5118a21.2246,21.2246,0,0,0,6.69,13.9373c6.521,5.99,17.7082,12.1265,17.7082,12.1265s18.4729,6.4122,25.7233,4.036c0,0,8.9969-1.3686,9.1311-1.1416s9.3284-1.0455,14.2115,2.2656l15.1438,2.2369s8.86.76,10.6789-.3095c0,0,17.2644-2.2212,18.152-7.2717,0,0,3.111-2.195,2.2427-14.7178l-1.0713-15.4625-1.82-10.96-.7648-10.4114-.95-10.884-.7713-10.8363-.4959-11.1514-.5035-13.1963" transform="translate(-168.2013 -288.0479)"/><path id="Path_2" data-name="Path 2" class="cls-1" d="M397.57,397.9122l1.7144,4.3264,4.83,5.0325,6.1963,4.6214,12.3676,9.1254c9.7549,4.8336,10.8413,17.3294,10.8413,17.3294,3.548,3.0032-2.5289,29.1421-2.5289,29.1421a12.2833,12.2833,0,0,1-8.7018,9.8558c-2.9817,1.361-13.3919-3.6941-13.3919-3.6941-3.0538-.6794-12.5652-8.3576-12.5652-8.3576-2.4323-1.18-6.9933-7.24-6.9933-7.24l-7.5468-8.6981-6.1253-6.5756-5.5053-5.3715-.6638-1.386-4.2131-5.9428,1.9514-23.1434" transform="translate(-168.2013 -288.0479)"/><path id="Path_3" data-name="Path 3" class="cls-1" d="M403.3592,416.4469s-4.6573-9.5119-4.3206-10.5629c0,0-3.1757-16.4123-2.8073-17.8911,0,0-5.808-23.2759-6.9084-23.182,0,0-7.067-15.4446-12.6314-17.9024l-5.62-4.6878-4.6662-8.1117s-11.4682-21.652-28.31-14.5679c0,0-7.0055,7.2328-14.3433.3927,0,0-12.9457-6.2108-19.15-3.77,0,0-11.6493,2.0575-13.0112-2.1395,0,0-15.2032-.1277-19.86,3.6636,0,0-20.5516,11.3742-21.98,13.22s-11.6931,6.2691-15.7987,13.3043c0,0-9.5258,9.87-11.7279,16.6411l-7.2286,10.7794-8.7334,10.9614-7.0307,7.7974-9.7166,9.6311-7.8212,8.6657s-12.57,17.94-10.2686,19.5517c0,0-1.5043,6.76,8.19,12.8252a21.8881,21.8881,0,0,1,4.4012,6.2074s14.1047,12.9675,22.7247,6.0915c0,0,7.971-3.3758,17.1-19.0439l12.4011-18.7438s9.2782-16.96,12.2638-16.755c0,0,7.0143-6.5335,9.0809-6.6939" transform="translate(-168.2013 -288.0479)"/><path id="Path_4" data-name="Path 4" class="cls-2" d="M293.79,288.7165s4.5858,1.6968,5.4706,1.6323c0,0,9.8,1.6489,11.4868.9559,0,0,5.8844-1.1707,7.4338-2.33,0,0,7.8-2.23,12.234.23,0,0,9.9755,2.8046,12.0723,11.3083l.6935,6.0534-.3043,3.938-.8182,4.2711s-2.0892,13.4544-14.23,8.0752l-6.509-2.5063-4.92-1.7138-4.5805-1.4076-5.3963-.6055-6.0638.5291s-11.9761,1.3674-12.1264-9.4332c0,0-2.0831-10.2752.6778-14.1162C288.9136,293.5931,291.3389,288.4241,293.79,288.7165Z" transform="translate(-168.2013 -288.0479)"/><path id="Path_5" data-name="Path 5" class="cls-2" d="M172.9268,434.3954l-4.1355,7.9524s-3.2066,2.3176,5.3315,11.3793l6.62,5.8009s8.84,3.8323,14.7819-5.3191" transform="translate(-168.2013 -288.0479)"/><path id="Path_6" data-name="Path 6" class="cls-2" d="M428.9149,472.5852s8.6021,3.4749,10.9555,1.7507c0,0,4.7954-6.8681,4.1034-10.1219,0,0,2.3516-12.6055-.73-14.9422,0,0-3.4964-4.8655-8.6238-5.663" transform="translate(-168.2013 -288.0479)"/><path id="Path_7" data-name="Path 7" class="cls-2" d="M367.431,483.7489s4.2115,20.5856-8.47,18.95l-19.6179,1.0034-10.8056.1371-11.4438-.5184-20.8981-3.4389-15.1625-3.1131-12.2921-3.7236L265.133,490.98a9.8746,9.8746,0,0,1-.5686-7.3792s-1.1987-12.6344-3.1477-14.32l6.7136,4.91,6.9926,4.3569,5.1157,2.1556,9.5019,2.4616,7.6453,1.0768,7.8248-.829s9.2536-.9887,10.8081-.8552,9.3767.4744,10.2268,2.3228l16.6447,2.344,6.9285.066,6.1347-1.407,7.3673-1.5668,3.8812-1.6208.3235,1.5208" transform="translate(-168.2013 -288.0479)"/><line id="Line_1" data-name="Line 1" class="cls-3" x1="104.1365" y1="188.6664" x2="105.2478" y2="206.3887"/><line id="Line_2" data-name="Line 2" class="cls-3" x1="97.7324" y1="184.6443" x2="98.9586" y2="204.2047"/><line id="Line_3" data-name="Line 3" class="cls-3" x1="142.2959" y1="194.6616" x2="143.5138" y2="214.0817"/><line id="Line_4" data-name="Line 4" class="cls-3" x1="149.3795" y1="194.6496" x2="150.6557" y2="215.012"/><line id="Line_5" data-name="Line 5" class="cls-3" x1="155.8429" y1="195.6629" x2="157.0747" y2="215.307"/><line id="Line_6" data-name="Line 6" class="cls-3" x1="163.2279" y1="197.4524" x2="164.366" y2="215.6035"/><line id="Line_7" data-name="Line 7" class="cls-3" x1="169.7221" y1="198.6442" x2="170.8441" y2="215.6957"/><line id="Line_8" data-name="Line 8" class="cls-3" x1="177.2286" y1="199.222" x2="178.2451" y2="215.4311"/><line id="Line_9" data-name="Line 9" class="cls-3" x1="191.6227" y1="197.1645" x2="192.7048" y2="214.432"/><line id="Line_10" data-name="Line 10" class="cls-3" x1="184.4205" y1="198.5849" x2="185.4567" y2="215.122"/><line id="Line_11" data-name="Line 11" class="cls-3" x1="196.6557" y1="195.951" x2="197.6322" y2="211.5348"/><line id="Line_12" data-name="Line 12" class="cls-3" x1="110.6266" y1="192.5353" x2="111.6341" y2="208.6011"/><line id="Line_13" data-name="Line 13" class="cls-3" x1="118.4464" y1="194.1055" x2="119.4524" y2="210.1502"/><line id="Line_14" data-name="Line 14" class="cls-3" x1="126.3104" y1="195.7491" x2="127.3103" y2="211.6929"/><line id="Line_15" data-name="Line 15" class="cls-3" x1="134.7086" y1="195.7131" x2="135.8415" y2="213.1231"/><line id="Line_16" data-name="Line 16" class="cls-3" x1="6.5108" y1="148.9936" x2="6.5118" y2="148.9934"/><rect id="Rectangle_7" data-name="Rectangle 7" x="166.2231" y="441.363" width="11.0446" height="0.6729" transform="translate(-461.2306 61.0268) rotate(-57.4817)"/><rect id="Rectangle_8" data-name="Rectangle 8" x="168.5965" y="444.8726" width="12.3054" height="0.6729" transform="translate(-454.7249 30.7656) rotate(-53.2457)"/><rect id="Rectangle_9" data-name="Rectangle 9" x="172.2191" y="448.8362" width="12.4834" height="0.6728" transform="translate(-452.923 23.044) rotate(-51.7316)"/><rect id="Rectangle_10" data-name="Rectangle 10" x="175.7853" y="452.276" width="11.4103" height="0.6727" transform="translate(-457.1145 36.0454) rotate(-52.8691)"/><rect id="Rectangle_11" data-name="Rectangle 11" x="179.4382" y="455.114" width="11.1731" height="0.6727" transform="translate(-453.5621 24.5507) rotate(-50.9977)"/><rect id="Rectangle_12" data-name="Rectangle 12" x="184.3703" y="456.2936" width="9.6185" height="0.6718" transform="translate(-449.1875 16.1229) rotate(-49.5299)"/><rect id="Rectangle_13" data-name="Rectangle 13" x="435.2204" y="465.955" width="0.6729" height="10.9496" transform="translate(-299.5495 484.3379) rotate(-75.2277)"/><rect id="Rectangle_14" data-name="Rectangle 14" x="436.824" y="460.8522" width="0.6726" height="11.7279" transform="translate(-283.2393 501.1744) rotate(-77.1595)"/><rect id="Rectangle_15" data-name="Rectangle 15" x="437.6171" y="456.4266" width="0.6719" height="11.4469" transform="translate(-278.4649 497.8986) rotate(-77.1075)"/><rect id="Rectangle_16" data-name="Rectangle 16" x="438.5486" y="452.133" width="0.6723" height="11.7799" transform="translate(-267.8122 505.2769) rotate(-78.1314)"/><rect id="Rectangle_17" data-name="Rectangle 17" x="438.9136" y="444.512" width="0.6729" height="10.1127" transform="translate(-262.5595 493.657) rotate(-77.5647)"/><path id="Path_8" data-name="Path 8" d="M440.6113,446.9378l-6.1166-1.8435.1932-.6442,6.1166,1.8435Z" transform="translate(-168.2013 -288.0479)"/><rect id="Rectangle_18" data-name="Rectangle 18" x="282.3737" y="302.7487" width="26.3297" height="0.6729" transform="translate(-194.3768 290.1804) rotate(-86.2607)"/><rect id="Rectangle_19" data-name="Rectangle 19" x="287.2968" y="303.4526" width="25.7778" height="0.6719" transform="translate(-180.4554 306.9113) rotate(-88.3237)"/><rect id="Rectangle_20" data-name="Rectangle 20" x="292.7725" y="303.4518" width="24.7819" height="0.6729" transform="translate(-174.9243 312.6223) rotate(-88.4587)"/><rect id="Rectangle_21" data-name="Rectangle 21" x="309.691" y="291.6093" width="0.6729" height="24.7449" transform="translate(-170.6671 -285.5125) rotate(-0.4667)"/><rect id="Rectangle_22" data-name="Rectangle 22" x="313.81" y="290.7337" width="0.6729" height="26.3797" transform="translate(-170.6665 -285.4789) rotate(-0.4667)"/><rect id="Rectangle_23" data-name="Rectangle 23" x="318.146" y="289.1265" width="0.6729" height="28.7024" transform="matrix(1, -0.0081, 0.0081, 1, -170.6628, -285.4436)"/><rect id="Rectangle_24" data-name="Rectangle 24" x="307.1306" y="303.5003" width="30.9771" height="0.6719" transform="translate(-153.9338 334.0946) rotate(-89.1927)"/><rect id="Rectangle_25" data-name="Rectangle 25" x="311.3252" y="305.0633" width="33.5938" height="0.6729" transform="matrix(0.026, -0.9997, 0.9997, 0.026, -153.8927, 337.4367)"/><rect id="Rectangle_26" data-name="Rectangle 26" x="317.317" y="306.4756" width="31.8687" height="0.6727" transform="translate(-144.4989 349.4746) rotate(-89.5276)"/><rect id="Rectangle_27" data-name="Rectangle 27" x="337.5063" y="293.4724" width="0.6729" height="26.0697" transform="translate(-173.9798 -281.5554) rotate(-1.0917)"/><rect id="Rectangle_28" data-name="Rectangle 28" x="279.4449" y="301.4962" width="24.3439" height="0.6719" transform="translate(-193.2328 289.2419) rotate(-87.0067)"/><rect id="Rectangle_29" data-name="Rectangle 29" x="438.9851" y="447.8903" width="0.6732" height="11.2133" transform="translate(-258.6171 509.0204) rotate(-78.8758)"/></g></svg>